<?xml version="1.0" encoding="UTF-8"?>
<svg id="Calque_2" data-name="Calque 2" xmlns="http://www.w3.org/2000/svg" viewBox="0 0 1500 1500">
  <defs>
    <style>
      .cls-1 {
        fill: #fff;
        stroke-width: 0px;
      }
    </style>
  </defs>
  <path class="cls-1" d="m1102.75,1412.71l-33.02-56.9c3.36-2.03,73.56-46.28,75.89-180.2-57.01,27.35-132.04,41.07-167.76,43.49-21.07,1.31-41.69-5.2-58.05-18.76-188.51-156-626.38-536.22-621.12-697.08,6.03-183.86,158.3-241.77,200.84-241.77,45.22,0,156.71,106.31,192.22,145.04,43.89,47.88,35.21,114.43-22.83,179.34l242.31,249.23c18.25-22.7,49.81-48.01,88.68-55.61,29.98-5.87,58.87-.02,83.6,16.79,50.05,34.03,108.57,101.44,151.31,150.65l8.95,10.3c31.03,35.68,12.83,78.38,4.07,98.91-11.18,26.23-27.07,53.04-38.29,69.3,18.33,213.07-101.59,284.3-106.79,287.28ZM497.32,327.75c-17.13,3.94-128.2,34.88-132.89,177.68-3.28,100.29,307.33,404.26,597.3,644.26,3.36,2.76,7.64,4,11.65,3.79,50.41-3.4,142.83-27.28,174.59-56.34l4.28-4.3c2.61-3.38,22.23-32.42,35.06-62.49,7.69-18.01,9.66-26.66,6.83-29.92l-8.99-10.36c-38.1-43.86-95.68-110.16-138.66-139.39-10.19-6.92-21.31-9.1-33.98-6.62-22.81,4.45-43.71,22.27-53.47,36.92-9.44,14.24-24.63,23.3-41.63,24.86-17.07,1.71-33.66-4.58-45.59-16.9l-257.07-264.42c-20.77-21.35-20.86-55.07-.19-76.74,22.36-23.45,55.82-67.2,28.68-96.79-55.86-60.95-124.79-113.79-145.92-123.24Z"/>
  <path class="cls-1" d="m1098.39,1401.96c33.1-18.12,58.99-74.31,73.84-114.16-116.39,91.58-262.98,146.41-422.23,146.41-377.28,0-684.21-306.93-684.21-684.21S372.72,65.79,750,65.79s684.21,306.93,684.21,684.21c0,140.97-42.88,272.1-116.24,381.09l54.53,36.77c80.47-119.49,127.5-263.28,127.5-417.85C1500,336.45,1163.56,0,750,0S0,336.45,0,750s336.45,750,750,750c127.75,0,248.09-32.18,353.48-88.74l-5.09-9.29Z"/>
</svg>